# xmcd
#
# Track frame offsets:
#	150
#	19092
#	31896
#	48002
#	58667
#	68830
#	79066
#	88745
#	105668
#	117820
#	128673
#	144571
#	157227
#	170908
#	180764
#	195363
#
# Disc length: 2802 seconds
#
# Revision: 3
# Processed by: cddbd v1.5PL3 Copyright (c) Steve Scherf et al.
# Submitted via: dBpowerAMP V4.0
#
DISCID=cd0af010
DTITLE=Various Artist - The Best Of Country and Western Volume 2 [CD 3)
DYEAR=1900
DGENRE=Country
TTITLE0=John Denver - Rocky Mountain High
TTITLE1=Willie Nelson - To All The Girls I've Loved Before
TTITLE2=Don Gibson - Green, Green Grass Of Home
TTITLE3=Dolly Parton - It Wasn't God, Who Made Honky Tonk Angels
TTITLE4=Jim Reeves - Anne Marie
TTITLE5=Anna Murray - Some Birds
TTITLE6=Barbara Mandrell - Release Me
TTITLE7=Johnny Cash - Sunday Morning Coming Down
TTITLE8=Dave Dudley - There Ain't No Easy Run
TTITLE9=Donna Fargo - Wishful Thinking
TTITLE10=Jeannie C Riley - The Cotton Patch
TTITLE11=Charley Pride - Help Me Make It Through The Night
TTITLE12=Jeannie Seely - One Day At A Time
TTITLE13=Ferlin Husky - Looking At The World Through The Night
TTITLE14=Loretta Lynn - Coalminer's Daughter
TTITLE15=Jerry Lee Lewis - Cold, Cold Heart
EXTD=
EXTT0=
EXTT1=
EXTT2=
EXTT3=
EXTT4=
EXTT5=
EXTT6=
EXTT7=
EXTT8=
EXTT9=
EXTT10=
EXTT11=
EXTT12=
EXTT13=
EXTT14=
EXTT15=
PLAYORDER=
